<?xml version="1.0" encoding="utf-8"?>
<!-- Generator: Adobe Illustrator 22.0.0, SVG Export Plug-In . SVG Version: 6.00 Build 0)  -->
<svg version="1.1" id="Laag_1" xmlns="http://www.w3.org/2000/svg" xmlns:xlink="http://www.w3.org/1999/xlink" x="0px" y="0px"
	 viewBox="0 0 1366 3379.9" style="enable-background:new 0 0 1366 3379.9;" xml:space="preserve">
<style type="text/css">
	.st0{fill:#FFFFFF;}
	.st1{opacity:0.4;fill:#E24349;stroke:#FFFFFF;stroke-width:4;stroke-miterlimit:10;enable-background:new    ;}
	.st2{opacity:0.4;fill:#34BCE3;enable-background:new    ;}
</style>
<rect class="st0" width="1366" height="3380"/>
<polygon class="st1" points="2,-5 437,-5 -3,435 "/>
<polygon class="st1" points="665.8,-11.6 -3,643.6 -3,912.5 946.2,-17.5 "/>
<polygon class="st2" points="2,1096.9 2,1316 1350.7,-17.5 1120,-17.5 "/>
<polygon class="st2" points="2,1552 2,1755 1368,389 1368,185 "/>
<polygon class="st1" points="2,1891 2,2076 1368,710 1368,555 "/>
<path class="st1" d="M2,2226v106c-0.7,43-1.3,86-2,129c455.7-457,911.3-914,1367-1371V931L2,2226z"/>
<path class="st2" d="M0,2683c0,73.7,0,147.3,0,221c456-454.4,912-908.7,1368-1363.1v-168C912,1809.6,456,2246.3,0,2683z"/>
<path class="st2" d="M3,3143c0,50.7,0,101.3,0,152c454.7-446.3,909.3-892.7,1364-1339v-201C912.3,2217.7,457.7,2680.3,3,3143z"/>
<polygon class="st1" points="1366,2138.4 118.7,3385.7 372,3385.7 1370.4,2387.4 "/>
<polygon class="st1" points="572,3380 1358,2594 1358,2827 801,3384 "/>
<polygon class="st2" points="1368,2989 978.5,3378.5 1370,3378.5 "/>
</svg>
