<?xml version="1.0" encoding="utf-8"?>
<!-- Generator: Adobe Illustrator 22.0.0, SVG Export Plug-In . SVG Version: 6.00 Build 0)  -->
<svg version="1.1" id="Laag_1" xmlns="http://www.w3.org/2000/svg" xmlns:xlink="http://www.w3.org/1999/xlink" x="0px" y="0px"
	 viewBox="0 0 461.7 262.6" style="enable-background:new 0 0 461.7 262.6;" xml:space="preserve">
<style type="text/css">
	.st0{fill:none;stroke:#2E2C7D;stroke-miterlimit:10;}
	.st1{fill:#2E2C7D;}
	.st2{fill:none;stroke:#FECC55;stroke-width:4;stroke-miterlimit:10;}
	.st3{fill:#E34349;}
	.st4{fill:none;stroke:#FECC55;stroke-width:3;stroke-miterlimit:10;}
	.st5{fill:none;stroke:#921E7E;stroke-width:3;stroke-miterlimit:10;}
	.st6{fill:none;stroke:#CFCB66;stroke-width:2;stroke-miterlimit:10;}
	.st7{fill:#921E7E;}
	.st8{fill:none;stroke:#5EBFBA;stroke-width:3;stroke-miterlimit:10;}
	.st9{fill:#CFCB66;}
	.st10{fill:none;stroke:#CFCB66;stroke-miterlimit:10;}
	.st11{fill:none;stroke:#921E7E;stroke-miterlimit:10;}
	.st12{fill:none;stroke:#F9B233;stroke-width:4;stroke-miterlimit:10;}
	.st13{fill:#FECC55;}
	.st14{fill:none;stroke:#E34349;stroke-width:2;stroke-miterlimit:10;}
	.st15{fill:none;stroke:#FECC55;stroke-miterlimit:10;}
	.st16{fill:none;stroke:#3AAA35;stroke-miterlimit:10;}
	.st17{fill:#009640;}
	.st18{fill:none;stroke:#E34349;stroke-width:3;stroke-miterlimit:10;}
	.st19{fill:none;stroke:#5EBFBA;stroke-miterlimit:10;}
	.st20{fill:#5EBFBA;}
	.st21{fill:none;stroke:#009FE3;stroke-miterlimit:10;}
</style>
<title>Droom-pagina</title>
<polygon class="st0" points="10,27.6 45.3,18.1 80.5,8.5 71.2,43.8 61.8,79.1 35.9,53.4 "/>
<polygon class="st1" points="24.9,33.1 47.1,27.1 69.3,21 63.4,43.3 57.5,65.5 41.2,49.3 "/>
<line class="st2" x1="83.7" y1="238.9" x2="55.7" y2="211"/>
<rect x="22.3" y="85.5" transform="matrix(0.2945 -0.9556 0.9556 0.2945 -60.1076 101.8212)" class="st3" width="33.2" height="12.1"/>
<path class="st4" d="M95,126.5c-0.5,0.6-1.1,1.1-1.8,1.5c-1.1,0.4-2.2,0.6-3.3,0.4c-2.4-0.3-2.7-1.3-4-1s-2.1,1.5-2.8,2.6
	c-1.3,2-0.7,2.8-1.8,4c-1.2,1.1-2.8,1.8-4.5,1.7c-2.4,0-3.1-1.3-4.7-1.3c-1.4,0.1-3.3,1.1-5.4,5.8"/>
<path class="st5" d="M97.1,133.3c-0.5,0.6-1.1,1.1-1.8,1.5c-1.1,0.4-2.2,0.6-3.3,0.4c-2.4-0.3-2.7-1.3-4-1s-2.1,1.4-2.8,2.6
	c-1.3,2-0.7,2.8-1.8,4c-1.2,1.1-2.8,1.7-4.5,1.7c-2.4,0-3.1-1.3-4.7-1.3c-1.4,0-3.3,1.1-5.4,5.8"/>
<path class="st5" d="M99.7,139.1c-0.5,0.6-1.1,1.1-1.8,1.5c-1.1,0.4-2.2,0.6-3.3,0.4c-2.4-0.3-2.7-1.3-4-1s-2,1.4-2.8,2.6
	c-1.3,2-0.7,2.8-1.8,4c-1.2,1.1-2.8,1.8-4.5,1.7c-2.4,0-3.1-1.3-4.7-1.3c-1.4,0-3.3,1.1-5.4,5.8"/>
<path class="st4" d="M93.4,119.7c-0.5,0.6-1.1,1.1-1.8,1.5c-1.1,0.4-2.2,0.6-3.3,0.4c-2.4-0.3-2.7-1.3-4-1s-2.1,1.4-2.8,2.6
	c-1.3,2-0.7,2.8-1.8,4c-1.2,1.1-2.8,1.8-4.5,1.7c-2.4,0-3.1-1.3-4.7-1.3c-1.4,0-3.3,1.1-5.4,5.8"/>
<circle class="st6" cx="101.1" cy="40.4" r="2.3"/>
<circle class="st7" cx="128.4" cy="69.5" r="2.3"/>
<circle class="st8" cx="123.7" cy="56.6" r="6.3"/>
<circle class="st3" cx="105.7" cy="102.4" r="1.2"/>
<rect x="77.1" y="189.7" transform="matrix(0.884 -0.4675 0.4675 0.884 -83.5089 60.6081)" class="st7" width="6.5" height="17.8"/>
<rect x="135.8" y="130.3" transform="matrix(0.4675 -0.884 0.884 0.4675 -48.7057 212.8964)" class="st9" width="33.2" height="33.2"/>
<path class="st10" d="M267.1,43.7c-0.8,0.2-1.6,0.2-2.3,0c-1.1-0.3-2-1-2.8-1.8c-1.7-1.7-1.3-2.7-2.5-3.3s-2.5-0.2-3.8,0.2
	c-2.3,0.7-2.3,1.7-3.9,2c-1.7,0.1-3.3-0.4-4.6-1.5c-1.8-1.5-1.5-3-2.8-4c-1.1-0.8-3.3-1.2-7.9,1"/>
<path class="st10" d="M270.2,37.4c-0.8,0.2-1.6,0.2-2.3,0c-1.1-0.3-2.1-1-2.8-1.8c-1.7-1.7-1.3-2.7-2.5-3.3
	c-1.2-0.6-2.5-0.2-3.8,0.2c-2.3,0.8-2.3,1.7-3.9,2c-1.6,0.1-3.3-0.4-4.5-1.5c-1.9-1.5-1.5-3-2.8-4c-1.1-0.9-3.3-1.2-7.9,1"/>
<polygon class="st11" points="139.5,8 171.3,16.5 203.1,25 179.8,48.3 156.5,71.6 148,39.8 "/>
<polygon class="st7" points="148.6,19 168.6,24.3 188.7,29.7 174,44.4 159.3,59.1 153.9,39 "/>
<line class="st12" x1="189.6" y1="82.8" x2="207.1" y2="100.3"/>
<line class="st12" x1="189.6" y1="74" x2="207.1" y2="91.5"/>
<line class="st12" x1="189.6" y1="65.3" x2="207.1" y2="82.8"/>
<circle class="st13" cx="102.4" cy="178.4" r="2.3"/>
<circle class="st3" cx="95" cy="169.1" r="1.1"/>
<circle class="st6" cx="29.4" cy="187" r="2.3"/>
<circle class="st7" cx="45.3" cy="190.8" r="2.3"/>
<circle class="st8" cx="40.5" cy="177.8" r="6.4"/>
<circle class="st3" cx="104.3" cy="171.5" r="1.1"/>
<circle class="st0" cx="40.5" cy="177.8" r="3.9"/>
<line class="st14" x1="161.2" y1="207.6" x2="175.1" y2="193.6"/>
<polygon class="st15" points="129.1,190.4 160.9,198.9 192.8,207.5 169.5,230.8 146.2,254 137.7,222.2 "/>
<polygon class="st13" points="138.2,201.4 158.3,206.8 178.3,212.1 163.6,226.8 148.9,241.5 143.6,221.4 "/>
<polygon class="st16" points="413.7,238.1 377.2,237.6 340.7,237 359.4,205.7 378.1,174.3 395.9,206.2 "/>
<polygon class="st17" points="400.9,228.8 377.9,228.4 354.9,228.1 366.7,208.3 378.5,188.6 389.7,208.7 "/>
<line class="st2" x1="395.8" y1="40.1" x2="414.9" y2="74.7"/>
<rect x="394.4" y="178.4" transform="matrix(0.5478 -0.8366 0.8366 0.5478 31.4987 427.3661)" class="st3" width="33.3" height="12.2"/>
<path class="st4" d="M367.1,137.6c0.6-0.5,1.4-0.8,2.1-0.9c1.1-0.1,2.3,0.1,3.3,0.6c2.2,0.9,2.3,2,3.6,2.1s2.4-0.8,3.4-1.7
	c1.8-1.6,1.5-2.5,2.9-3.4c1.5-0.7,3.2-0.9,4.8-0.4c2.3,0.6,2.6,2.1,4.1,2.5c1.4,0.3,3.5-0.2,6.8-4"/>
<path class="st5" d="M367,130.5c0.6-0.5,1.4-0.8,2.1-0.9c1.1-0.1,2.3,0.1,3.3,0.6c2.2,0.9,2.3,2,3.6,2.1s2.4-0.8,3.4-1.7
	c1.8-1.6,1.4-2.5,2.9-3.4c1.5-0.8,3.2-0.9,4.8-0.4c2.3,0.7,2.6,2.1,4.1,2.5c1.4,0.3,3.5-0.2,6.8-4"/>
<path class="st5" d="M366.1,124.1c0.6-0.5,1.4-0.8,2.1-0.9c1.1-0.1,2.3,0.1,3.3,0.6c2.2,0.9,2.3,2,3.6,2.1s2.4-0.8,3.4-1.7
	c1.8-1.6,1.4-2.5,2.9-3.4c1.5-0.8,3.2-0.9,4.8-0.4c2.3,0.7,2.6,2.1,4.1,2.5c1.4,0.3,3.5-0.2,6.8-4"/>
<path class="st4" d="M366.7,144.5c0.6-0.5,1.4-0.8,2.1-0.9c1.1-0.1,2.3,0.1,3.3,0.6c2.2,0.9,2.3,2,3.6,2.1s2.4-0.8,3.4-1.7
	c1.8-1.6,1.5-2.5,2.9-3.4c1.5-0.7,3.2-0.9,4.8-0.4c2.3,0.6,2.6,2.1,4.1,2.5c1.4,0.3,3.5-0.2,6.8-4"/>
<circle class="st6" cx="331.2" cy="201.7" r="2.3"/>
<circle class="st7" cx="312.9" cy="166.1" r="2.3"/>
<circle class="st8" cx="313.9" cy="179.9" r="6.4"/>
<circle class="st3" cx="350.1" cy="157.8" r="1.1"/>
<rect x="345.1" y="15.7" transform="matrix(0.9786 -0.2059 0.2059 0.9786 0.8735 72.9897)" class="st7" width="12.1" height="33.2"/>
<rect x="273.8" y="130.7" transform="matrix(0.6929 -0.721 0.721 0.6929 -9.4243 251.3626)" class="st9" width="33.2" height="12.1"/>
<path class="st18" d="M199.2,145c0.8,0,1.6,0.3,2.2,0.6c1,0.6,1.7,1.5,2.2,2.5c1.1,2.1,0.5,2.9,1.5,3.9s2.4,0.9,3.7,0.8
	c2.4-0.1,2.7-1,4.3-0.8c1.6,0.3,3.1,1.3,4,2.7c1.4,2,0.7,3.3,1.6,4.6c0.8,1.1,2.8,2,7.8,1.2"/>
<path class="st18" d="M194.6,150.2c0.8,0,1.5,0.3,2.2,0.7c1,0.6,1.7,1.5,2.2,2.5c1.1,2.1,0.5,3,1.5,3.9s2.4,0.9,3.7,0.8
	c2.4-0.1,2.7-1,4.3-0.8c1.6,0.4,3.1,1.3,4,2.7c1.4,2,0.6,3.3,1.6,4.6c0.8,1.1,2.8,2.1,7.8,1.2"/>
<polygon class="st19" points="285.3,222.2 257.1,205.3 228.8,188.3 257.6,172.3 286.4,156.4 285.9,189.3 "/>
<polygon class="st20" points="279.6,209.2 261.8,198.5 244,187.8 262.1,177.7 280.3,167.7 279.9,188.4 "/>
<line class="st21" x1="237.1" y1="226.6" x2="229.1" y2="212.2"/>
<line class="st21" x1="235.1" y1="231.5" x2="227.1" y2="217"/>
<line class="st21" x1="233.5" y1="237.1" x2="225.5" y2="222.6"/>
<line class="st21" x1="231.9" y1="242.7" x2="223.9" y2="228.3"/>
<circle class="st13" cx="394.9" cy="101" r="2.3"/>
<circle class="st3" cx="399.4" cy="112" r="1.1"/>
<circle class="st6" cx="444.5" cy="59.1" r="2.3"/>
<circle class="st7" cx="433.7" cy="37.5" r="2.3"/>
<circle class="st8" cx="433.7" cy="103.2" r="6.4"/>
<circle class="st3" cx="391.1" cy="107.2" r="1.1"/>
<circle class="st0" cx="433.7" cy="103.2" r="3.9"/>
<line class="st14" x1="348.7" y1="102.3" x2="331.5" y2="111.9"/>
<circle class="st3" cx="293.8" cy="69.5" r="20.5"/>
</svg>
