<?xml version="1.0" encoding="utf-8"?>
<!-- Generator: Adobe Illustrator 22.0.0, SVG Export Plug-In . SVG Version: 6.00 Build 0)  -->
<svg version="1.1"
	 id="Laag_1" xmlns:cc="http://creativecommons.org/ns#" xmlns:dc="http://purl.org/dc/elements/1.1/" xmlns:inkscape="http://www.inkscape.org/namespaces/inkscape" xmlns:rdf="http://www.w3.org/1999/02/22-rdf-syntax-ns#" xmlns:sodipodi="http://sodipodi.sourceforge.net/DTD/sodipodi-0.dtd" xmlns:svg="http://www.w3.org/2000/svg"
	 xmlns="http://www.w3.org/2000/svg" xmlns:xlink="http://www.w3.org/1999/xlink" x="0px" y="0px" viewBox="0 0 78.1 74"
	 style="enable-background:new 0 0 78.1 74;" xml:space="preserve">
<style type="text/css">
	.st0{fill:#003082;}
</style>
<g transform="translate(0,-952.36218)">
	<path class="st0" d="M62.1,1026.4c1.1-0.1,1.9-1,1.9-2.1c0,0,0-0.1,0-0.1l-2.8-24l16.4-17.7c0.8-0.8,0.7-2.1-0.1-2.8
		c-0.3-0.3-0.6-0.4-1-0.5l-23.8-4.7l-11.9-21c-0.5-1-1.8-1.3-2.7-0.7c-0.3,0.2-0.6,0.4-0.7,0.7l-11.9,21l-23.8,4.7
		c-1.1,0.2-1.8,1.3-1.6,2.3c0.1,0.4,0.2,0.7,0.5,1l16.4,17.7l-2.8,24c-0.1,1.1,0.7,2.1,1.8,2.2c0.4,0,0.7,0,1.1-0.2l22-10.1l22,10.1
		C61.4,1026.3,61.7,1026.4,62.1,1026.4z M59.5,1021.1l-19.6-9c-0.5-0.2-1.1-0.2-1.7,0l-19.6,9l2.5-21.3c0.1-0.6-0.1-1.2-0.5-1.6
		L5.9,982.4l21.2-4.2c0.6-0.1,1.1-0.5,1.4-1l10.6-18.7l10.6,18.7c0.3,0.5,0.8,0.9,1.4,1l21.2,4.2l-14.6,15.8c-0.4,0.4-0.6,1-0.5,1.6
		L59.5,1021.1L59.5,1021.1z"/>
</g>
</svg>
