<svg xmlns="http://www.w3.org/2000/svg" viewBox="0 0 36 32"><defs><style>.cls-1{fill:#003082;}</style></defs><title>NShamburger</title><g id="Laag_2" data-name="Laag 2"><g id="Laag_1-2" data-name="Laag 1"><g id="VRM2-OPDR-1-Huisstijl-toepassen-op-het-web"><g id="Artboard"><g id="icons"><g id="download-_4_" data-name="download-(4)"><path id="Shape" class="cls-1" d="M35,32H1a1,1,0,0,1,0-2H35a1,1,0,0,1,0,2Z"/><path id="Shape-2" data-name="Shape" class="cls-1" d="M35,12H1a.94.94,0,0,1-1-1,.94.94,0,0,1,1-1H35a.94.94,0,0,1,1,1A.94.94,0,0,1,35,12Z"/><path id="Shape-3" data-name="Shape" class="cls-1" d="M35,22H1a1,1,0,0,1,0-2H35a1,1,0,0,1,0,2Z"/><path id="Shape-4" data-name="Shape" class="cls-1" d="M35,2H1A.94.94,0,0,1,0,1,.94.94,0,0,1,1,0H35a.94.94,0,0,1,1,1A.94.94,0,0,1,35,2Z"/></g></g></g></g></g></g></svg>