<svg xmlns="http://www.w3.org/2000/svg" viewBox="0 0 40 40"><defs><style>.cls-1{fill:#003082;}</style></defs><title>NSinformatie</title><g id="Laag_2" data-name="Laag 2"><g id="Laag_1-2" data-name="Laag 1"><g id="VRM2-OPDR-1-Huisstijl-toepassen-op-het-web"><g id="Artboard"><g id="icons"><g id="download-_7_" data-name="download-(7)"><path id="Shape" class="cls-1" d="M20,40A20,20,0,1,1,40,20,20,20,0,0,1,20,40ZM20,2A18,18,0,1,0,38,20,18,18,0,0,0,20,2Z"/><path id="Shape-2" data-name="Shape" class="cls-1" d="M20,13h0a1.5,1.5,0,0,1-1.5-1.5h0A1.5,1.5,0,0,1,20,10h0a1.5,1.5,0,0,1,1.5,1.5h0A1.5,1.5,0,0,1,20,13Z"/><path id="Shape-3" data-name="Shape" class="cls-1" d="M20,17a1,1,0,0,0-1,1V31h2V18A1,1,0,0,0,20,17Z"/></g></g></g></g></g></g></svg>