<svg xmlns="http://www.w3.org/2000/svg" viewBox="0 0 30 30"><defs><style>.cls-1{fill:#003082;}</style></defs><title>NSkruis</title><g id="Laag_2" data-name="Laag 2"><g id="Laag_1-2" data-name="Laag 1"><g id="VRM2-OPDR-1-Huisstijl-toepassen-op-het-web"><g id="Artboard"><g id="icons"><g id="download-_5_" data-name="download-(5)"><path id="Shape" class="cls-1" d="M29,30a1,1,0,0,1-.71-.29l-28-28A1,1,0,0,1,1.71.29l28,28a1,1,0,0,1,0,1.42A1,1,0,0,1,29,30Z"/><path id="Shape-2" data-name="Shape" class="cls-1" d="M1,30a1,1,0,0,1-.71-.29,1,1,0,0,1,0-1.42l28-28a1,1,0,1,1,1.42,1.42l-28,28A1,1,0,0,1,1,30Z"/></g></g></g></g></g></g></svg>