<svg xmlns="http://www.w3.org/2000/svg" viewBox="0 0 25.77 53"><defs><style>.cls-1{fill:#003082;}</style></defs><title>NSlamp</title><g id="Laag_2" data-name="Laag 2"><g id="Laag_1-2" data-name="Laag 1"><g id="VRM2-OPDR-1-Huisstijl-toepassen-op-het-web"><g id="Artboard"><g id="icons"><g id="download-_10_" data-name="download-(10)"><rect id="Rectangle-path" class="cls-1" x="12.03" y="24.6" width="2" height="17.8"/><circle id="Oval" class="cls-1" cx="13.03" cy="25" r="2"/><path id="Shape" class="cls-1" d="M19,43H7a1,1,0,0,1,0-2H19a1,1,0,0,1,0,2Z"/><path id="Shape-2" data-name="Shape" class="cls-1" d="M19,47H7a1,1,0,0,1,0-2H19a1,1,0,0,1,0,2Z"/><path id="Shape-3" data-name="Shape" class="cls-1" d="M6.23,49c1.4,2,4,4,6.8,4a8.65,8.65,0,0,0,6.8-4Z"/><path id="Shape-4" data-name="Shape" class="cls-1" d="M13,8.4a.94.94,0,0,1-1-1V1a1,1,0,0,1,2,0V7.4A.94.94,0,0,1,13,8.4Z"/><path id="Shape-5" data-name="Shape" class="cls-1" d="M7.63,9.2c-.4,0-.8-.2-.8-.6L4.23,3.4A1.33,1.33,0,0,1,4.63,2,1.33,1.33,0,0,1,6,2.4l2.6,5.2A1.33,1.33,0,0,1,8.23,9C7.83,9.2,7.83,9.2,7.63,9.2Z"/><path id="Shape-6" data-name="Shape" class="cls-1" d="M18.43,9.2c-.2,0-.4,0-.4-.2a1.15,1.15,0,0,1-.4-1.4l2.6-5.2a1.15,1.15,0,0,1,1.4-.4,1,1,0,0,1,.2,1.4l-2.6,5.2C19.23,9,18.83,9.2,18.43,9.2Z"/><path id="Shape-7" data-name="Shape" class="cls-1" d="M13,11c-5.6,0-11.6,2.8-12.8,9.2a18.23,18.23,0,0,0,1.6,10.6,18.29,18.29,0,0,0,1.4,2.8,40.58,40.58,0,0,1,2.2,5.2h2a40.9,40.9,0,0,0-2.6-6.2c-.4-1-1-1.8-1.4-2.8A17.77,17.77,0,0,1,2,20.4c.8-5.2,6-7.6,10.8-7.6s10,2.4,10.8,7.6a15.79,15.79,0,0,1-1.4,9.4c-.4.8-.8,1.8-1.2,2.8a40.9,40.9,0,0,0-2.6,6.2h2a43.52,43.52,0,0,1,2.2-5.4c.4-1,1-2,1.4-2.8A20,20,0,0,0,25.63,20C24.83,13.8,18.63,11,13,11Z"/></g></g></g></g></g></g></svg>