<?xml version="1.0" encoding="utf-8"?>
<!-- Generator: Adobe Illustrator 22.0.0, SVG Export Plug-In . SVG Version: 6.00 Build 0)  -->
<svg version="1.1" id="Laag_1" xmlns="http://www.w3.org/2000/svg" xmlns:xlink="http://www.w3.org/1999/xlink" x="0px" y="0px"
	 viewBox="0 0 34 38" style="enable-background:new 0 0 34 38;" xml:space="preserve">
<style type="text/css">
	.st0{fill:#003082;}
	.st1{fill:none;}
</style>
<title>NSprofiel</title>
<g id="Laag_2_1_">
	<g id="Laag_1-2">
		<g id="VRM2-OPDR-1-Huisstijl-toepassen-op-het-web">
			<g id="Artboard">
				<g id="icons">
					<g id="download-_2_">
						<path id="Shape" class="st0" d="M17,20c-4.4,0-8-4-8-9V9c0-5,3.6-9,8-9s8,4,8,9v2C25,16,21.4,20,17,20z M17,2
							c-3.4,0-6,3.2-6,7v2c0,3.8,2.6,7,6,7s6-3.2,6-7V9C23,5.2,20.4,2,17,2z"/>
						<path id="Shape-2" class="st0" d="M18,38H0v-6c0-4.8,4-10.4,9-10.4c0.6,0,1,0.4,1,1s-0.4,1-1,1c-3.8,0-7,4.6-7,8.4v4h16
							c0.6,0,1,0.4,1,1S18.6,38,18,38z"/>
						<path id="Shape-3" class="st0" d="M34,38H16c-0.6,0-1-0.4-1-1s0.4-1,1-1h16v-4c0-3.8-3.2-8.4-7-8.4c-0.6,0-1-0.4-1-1
							s0.4-1,1-1c5,0,9,5.6,9,10.4V38z"/>
					</g>
				</g>
			</g>
		</g>
	</g>
</g>
<rect x="21.8" y="-1.4" class="st1" width="8" height="8.7"/>
</svg>
