<?xml version="1.0" encoding="utf-8"?>
<!-- Generator: Adobe Illustrator 22.0.0, SVG Export Plug-In . SVG Version: 6.00 Build 0)  -->
<svg version="1.1" id="Laag_1" xmlns="http://www.w3.org/2000/svg" xmlns:xlink="http://www.w3.org/1999/xlink" x="0px" y="0px"
	 viewBox="0 0 55.7 61.7" style="enable-background:new 0 0 55.7 61.7;" xml:space="preserve">
<style type="text/css">
	.st0{fill:#223974;}
</style>
<g id="Laag_2_1_">
	<g id="Laag_1-2">
		<g id="VRM2-OPDR-1-Huisstijl-toepassen-op-het-web">
			<g id="Artboard">
				<g id="icons">
					<g id="download-_2_">
						<path id="Shape" class="st0" d="M27.6,32.5c-7.1,0-13-6.5-13-14.6v-3.2c0-8.1,5.8-14.6,13-14.6s13,6.5,13,14.6v3.2
							C40.6,26,34.8,32.5,27.6,32.5z M27.6,3.2c-5.5,0-9.7,5.2-9.7,11.4v3.2c0,6.2,4.2,11.4,9.7,11.4s9.7-5.2,9.7-11.4v-3.2
							C37.4,8.4,33.1,3.2,27.6,3.2z"/>
						<path id="Shape-2" class="st0" d="M29.2,61.7H0V52c0-7.8,6.5-16.9,14.6-16.9c0.9,0,1.6,0.7,1.6,1.6c0,0.9-0.7,1.6-1.6,1.6
							C8.4,38.3,3.2,45.8,3.2,52v6.5h26c0.9,0,1.6,0.7,1.6,1.6C30.9,61,30.1,61.7,29.2,61.7z"/>
						<path id="Shape-3" class="st0" d="M55.2,61.7H26c-0.9,0-1.6-0.7-1.6-1.6c0-0.9,0.7-1.6,1.6-1.6h26V52
							c0-6.2-5.2-13.6-11.4-13.6c-0.9,0-1.6-0.7-1.6-1.6c0-0.9,0.7-1.6,1.6-1.6c8.1,0,14.6,9.1,14.6,16.9V61.7z"/>
					</g>
				</g>
			</g>
		</g>
	</g>
</g>
</svg>
