<svg xmlns="http://www.w3.org/2000/svg" viewBox="0 0 36.8 37"><defs><style>.cls-1{fill:#003082;}</style></defs><title>NSvergootglas</title><g id="Laag_2" data-name="Laag 2"><g id="Laag_1-2" data-name="Laag 1"><g id="VRM2-OPDR-1-Huisstijl-toepassen-op-het-web"><g id="Artboard"><g id="icons"><g id="download-_3_" data-name="download-(3)"><path id="Shape" class="cls-1" d="M15,30A15.11,15.11,0,0,1,0,15,15.11,15.11,0,0,1,15,0,15.11,15.11,0,0,1,30,15,15.11,15.11,0,0,1,15,30ZM15,2A13,13,0,1,0,28,15,13,13,0,0,0,15,2Z"/><path id="Shape-2" data-name="Shape" class="cls-1" d="M26,23l-3,3L33.4,36.4a1.93,1.93,0,0,0,2.8,0,1.93,1.93,0,0,0,0-2.8Z"/></g></g></g></g></g></g></svg>