<svg id="Laag_1" data-name="Laag 1" xmlns="http://www.w3.org/2000/svg" viewBox="0 0 306.25 207.59"><defs><style>.cls-1{fill:#223974;}.cls-2{fill:none;stroke:#223974;stroke-miterlimit:10;stroke-width:12px;}</style></defs><title>verhalenreeks</title><path class="cls-1" d="M257.45,97.43a1.92,1.92,0,0,0,1.71,1.06,2,2,0,0,0,.88-.21c.11-.06,11.4-5.8,17-7.56a1.92,1.92,0,0,0-1.14-3.66c-5.88,1.87-17.1,7.56-17.57,7.8A1.88,1.88,0,0,0,257.45,97.43Z" transform="translate(-0.92 -1.21)"/><path class="cls-1" d="M259.16,75.45a2.16,2.16,0,0,0,.88-.2c.11-.07,11.4-5.81,17-7.56A1.92,1.92,0,0,0,275.88,64c-5.88,1.87-17.1,7.56-17.57,7.81a1.9,1.9,0,0,0-.84,2.58A1.87,1.87,0,0,0,259.16,75.45Z" transform="translate(-0.92 -1.21)"/><path class="cls-1" d="M305.24,71.6a1.92,1.92,0,0,0-1.92,1.91v74.88a5.76,5.76,0,0,1-5.76,5.75H251.47v-4.4a56.19,56.19,0,0,1,17.27-3.27c16.72,0,28.08,3.72,28.19,3.74a1.91,1.91,0,0,0,2.52-1.82V63.93a1.91,1.91,0,0,0-1.5-1.87s-1.51-.33-4.08-.81a1.91,1.91,0,0,0-.69,3.76c1,.18,1.8.34,2.43.47v80.36a108.51,108.51,0,0,0-26.89-3.21,59.62,59.62,0,0,0-19.12,3.69,45,45,0,0,0-17.35-3.69,130,130,0,0,0-28.79,3.28V65.42A125.92,125.92,0,0,1,232.25,62a41.59,41.59,0,0,1,15.37,3.17v75.55a1.92,1.92,0,0,0,1,1.66,1.9,1.9,0,0,0,1.93,0c.18-.11,19.21-11.47,36.09-17.1a1.92,1.92,0,0,0,1.3-1.82V44.72a1.93,1.93,0,0,0-2.61-1.8c-15.36,5.76-30.91,15.43-31.07,15.52a1.93,1.93,0,0,0,2,3.26,204.24,204.24,0,0,1,27.79-14.17v74.53c-13.1,4.55-26.8,12-32.65,15.32V63.93a1.89,1.89,0,0,0-1.06-1.71,44.33,44.33,0,0,0-18.13-4A124.38,124.38,0,0,0,201,62.09a1.91,1.91,0,0,0-1.4,1.84v84.48a1.92,1.92,0,0,0,1.92,1.91,1.75,1.75,0,0,0,.51-.07,123.66,123.66,0,0,1,30.19-3.75,41.38,41.38,0,0,1,15.37,3.17v4.52H201.57a5.77,5.77,0,0,1-5.76-5.76V73.51a1.92,1.92,0,0,0-1.91-1.91A1.94,1.94,0,0,0,192,73.51v74.88a9.6,9.6,0,0,0,9.61,9.6h96a9.62,9.62,0,0,0,9.61-9.6V73.51A2,2,0,0,0,305.24,71.6Z" transform="translate(-0.92 -1.21)"/><path class="cls-1" d="M257.45,85.91A1.9,1.9,0,0,0,259.16,87a2.16,2.16,0,0,0,.88-.2c.11-.07,11.4-5.81,17-7.56a1.92,1.92,0,0,0-1.14-3.67c-5.88,1.87-17.1,7.56-17.57,7.81A1.87,1.87,0,0,0,257.45,85.91Z" transform="translate(-0.92 -1.21)"/><path class="cls-1" d="M257.45,109a1.92,1.92,0,0,0,1.71,1.06,2,2,0,0,0,.88-.21c.11-.06,11.4-5.8,17-7.56a1.92,1.92,0,0,0-1.14-3.66c-5.88,1.86-17.1,7.56-17.57,7.8A1.88,1.88,0,0,0,257.45,109Z" transform="translate(-0.92 -1.21)"/><path class="cls-1" d="M238.46,78.44c-11.85-2.79-25.33.77-25.89.92a1.92,1.92,0,0,0,.49,3.78,2.14,2.14,0,0,0,.5-.06c.13,0,13.09-3.45,24-.88a1.93,1.93,0,0,0,.87-3.76Z" transform="translate(-0.92 -1.21)"/><path class="cls-1" d="M238.46,90c-11.85-2.79-25.33.76-25.89.92a1.92,1.92,0,0,0,.49,3.78,1.73,1.73,0,0,0,.5-.07c.13,0,13.09-3.44,24-.87a1.93,1.93,0,0,0,2.31-1.44A1.9,1.9,0,0,0,238.46,90Z" transform="translate(-0.92 -1.21)"/><path class="cls-1" d="M257.45,120.47a1.91,1.91,0,0,0,1.71,1,2,2,0,0,0,.88-.2c.11-.07,11.4-5.8,17-7.56a1.92,1.92,0,1,0-1.14-3.66c-5.88,1.86-17.1,7.55-17.57,7.8A1.88,1.88,0,0,0,257.45,120.47Z" transform="translate(-0.92 -1.21)"/><path class="cls-1" d="M238.46,101.48c-11.85-2.79-25.33.76-25.89.92a1.92,1.92,0,0,0,.49,3.78,1.73,1.73,0,0,0,.5-.07c.13,0,13.09-3.44,24-.87a1.93,1.93,0,0,0,2.31-1.44A1.9,1.9,0,0,0,238.46,101.48Z" transform="translate(-0.92 -1.21)"/><path class="cls-1" d="M238.46,124.52c-11.85-2.79-25.33.76-25.89.92a1.92,1.92,0,0,0,.49,3.78,1.73,1.73,0,0,0,.5-.07c.13,0,13.09-3.44,24-.88a1.92,1.92,0,1,0,.87-3.75Z" transform="translate(-0.92 -1.21)"/><path class="cls-1" d="M238.46,113c-11.85-2.79-25.33.76-25.89.92a1.92,1.92,0,0,0,.49,3.78,1.73,1.73,0,0,0,.5-.07c.13,0,13.09-3.44,24-.88a1.92,1.92,0,1,0,.87-3.75Z" transform="translate(-0.92 -1.21)"/><path class="cls-1" d="M66.41,99.34a1.91,1.91,0,0,0,1.71,1,2,2,0,0,0,.88-.2c.11-.07,11.4-5.8,17-7.56A1.92,1.92,0,0,0,84.84,89c-5.88,1.87-17.1,7.56-17.57,7.81A1.88,1.88,0,0,0,66.41,99.34Z" transform="translate(-0.92 -1.21)"/><path class="cls-1" d="M68.12,77.36a2,2,0,0,0,.88-.21c.11-.06,11.4-5.8,17-7.56a1.92,1.92,0,1,0-1.14-3.66c-5.88,1.86-17.1,7.56-17.57,7.8a1.92,1.92,0,0,0-.84,2.59A1.88,1.88,0,0,0,68.12,77.36Z" transform="translate(-0.92 -1.21)"/><path class="cls-1" d="M114.2,73.51a1.91,1.91,0,0,0-1.92,1.91v74.87a5.77,5.77,0,0,1-5.76,5.76H60.43v-4.41a56.24,56.24,0,0,1,17.27-3.26c16.72,0,28.08,3.71,28.19,3.73a1.91,1.91,0,0,0,1.74-.27,1.93,1.93,0,0,0,.78-1.55V65.84a1.91,1.91,0,0,0-1.5-1.87s-1.51-.34-4.08-.81a1.91,1.91,0,0,0-.69,3.76c1,.18,1.8.34,2.43.47v80.36a107.88,107.88,0,0,0-26.89-3.22,59.91,59.91,0,0,0-19.12,3.69,45,45,0,0,0-17.35-3.69,129.78,129.78,0,0,0-28.79,3.29V67.32a126.7,126.7,0,0,1,28.79-3.39A41.59,41.59,0,0,1,56.58,67.1v75.54a1.93,1.93,0,0,0,1,1.67,1.9,1.9,0,0,0,1.93,0c.18-.12,19.21-11.48,36.09-17.1a1.9,1.9,0,0,0,1.3-1.82V46.62a1.93,1.93,0,0,0-2.61-1.79C78.9,50.58,63.35,60.26,63.19,60.35a1.93,1.93,0,0,0,2,3.26A204.24,204.24,0,0,1,93,49.44V124c-13.1,4.55-26.8,12-32.65,15.32V65.84a1.88,1.88,0,0,0-1.06-1.71,44.33,44.33,0,0,0-18.13-4A125.2,125.2,0,0,0,10,64a1.92,1.92,0,0,0-1.4,1.85v84.48a1.92,1.92,0,0,0,.77,1.52,1.94,1.94,0,0,0,1.15.39,2,2,0,0,0,.51-.07,122.78,122.78,0,0,1,30.19-3.76,41.59,41.59,0,0,1,15.37,3.17v4.53h-46a5.77,5.77,0,0,1-5.76-5.76V75.42a1.91,1.91,0,0,0-1.91-1.91A1.93,1.93,0,0,0,.92,75.42v74.87a9.61,9.61,0,0,0,9.61,9.61h96a9.62,9.62,0,0,0,9.61-9.61V75.42A1.94,1.94,0,0,0,114.2,73.51Z" transform="translate(-0.92 -1.21)"/><path class="cls-1" d="M66.41,87.82a1.91,1.91,0,0,0,1.71,1.05,2,2,0,0,0,.88-.2c.11-.07,11.4-5.8,17-7.56a1.92,1.92,0,1,0-1.14-3.66C79,79.31,67.74,85,67.27,85.25A1.88,1.88,0,0,0,66.41,87.82Z" transform="translate(-0.92 -1.21)"/><path class="cls-1" d="M66.41,110.85a1.9,1.9,0,0,0,1.71,1.06,2.16,2.16,0,0,0,.88-.2c.11-.07,11.4-5.8,17-7.56a1.92,1.92,0,0,0-1.14-3.67c-5.88,1.87-17.1,7.56-17.57,7.81A1.87,1.87,0,0,0,66.41,110.85Z" transform="translate(-0.92 -1.21)"/><path class="cls-1" d="M47.42,80.35c-11.85-2.79-25.33.76-25.89.92A1.92,1.92,0,0,0,22,85.05a1.73,1.73,0,0,0,.5-.07c.13,0,13.09-3.44,24-.87a1.93,1.93,0,0,0,2.31-1.44A1.9,1.9,0,0,0,47.42,80.35Z" transform="translate(-0.92 -1.21)"/><path class="cls-1" d="M47.42,91.87c-11.85-2.79-25.33.76-25.89.92A1.92,1.92,0,0,0,22,96.57a1.73,1.73,0,0,0,.5-.07c.13,0,13.09-3.44,24-.88a1.92,1.92,0,0,0,.87-3.75Z" transform="translate(-0.92 -1.21)"/><path class="cls-1" d="M66.41,122.37a1.9,1.9,0,0,0,1.71,1.06,2.16,2.16,0,0,0,.88-.2c.11-.07,11.4-5.81,17-7.56A1.92,1.92,0,0,0,84.84,112c-5.88,1.87-17.1,7.56-17.57,7.81A1.87,1.87,0,0,0,66.41,122.37Z" transform="translate(-0.92 -1.21)"/><path class="cls-1" d="M47.42,103.39c-11.85-2.79-25.33.76-25.89.92a1.92,1.92,0,0,0,.49,3.78,1.73,1.73,0,0,0,.5-.07c.13,0,13.09-3.44,24-.88a1.92,1.92,0,0,0,.87-3.75Z" transform="translate(-0.92 -1.21)"/><path class="cls-1" d="M47.42,126.42c-11.85-2.79-25.33.77-25.89.93a1.92,1.92,0,0,0,.49,3.77,2.14,2.14,0,0,0,.5-.06c.13-.05,13.09-3.44,24-.88a1.93,1.93,0,0,0,.87-3.76Z" transform="translate(-0.92 -1.21)"/><path class="cls-1" d="M47.42,114.9c-11.85-2.79-25.33.77-25.89.93a1.92,1.92,0,0,0,.49,3.78,2.15,2.15,0,0,0,.5-.07c.13-.05,13.09-3.44,24-.88a1.93,1.93,0,0,0,.87-3.76Z" transform="translate(-0.92 -1.21)"/><path class="cls-2" d="M115.28,35.39c20-18.8,50-19.28,67.12-1.07" transform="translate(-0.92 -1.21)"/><path id="Shape" class="cls-1" d="M152.52,45.08a6.6,6.6,0,0,1,4.68-8.7l20.08-6-6-20.07a6.6,6.6,0,0,1,4.68-8.7,6.59,6.59,0,0,1,8.7,4.68l10.05,33.45-33.46,10A6.61,6.61,0,0,1,152.52,45.08Z" transform="translate(-0.92 -1.21)"/><path class="cls-2" d="M191.86,174.63c-20,18.8-50,19.28-67.12,1.07" transform="translate(-0.92 -1.21)"/><path id="Shape-2" data-name="Shape" class="cls-1" d="M154.61,164.94a6.59,6.59,0,0,1-4.68,8.7l-20.07,6,6,20.07a7,7,0,1,1-13.38,4l-10.05-33.45,33.45-10.05A6.6,6.6,0,0,1,154.61,164.94Z" transform="translate(-0.92 -1.21)"/></svg>